<svg width="5" height="8" viewBox="0 0 5 8" fill="09ABE4" xmlns="http://www.w3.org/2000/svg">
<path d="M0.646447 6.64645C0.451185 6.84171 0.451185 7.15829 0.646447 7.35355C0.841709 7.54882 1.15829 7.54882 1.35355 7.35355L0.646447 6.64645ZM4 4L4.35355 4.35355C4.54882 4.15829 4.54882 3.84171 4.35355 3.64645L4 4ZM1.35355 0.646447C1.15829 0.451184 0.841709 0.451184 0.646447 0.646447C0.451185 0.841709 0.451185 1.15829 0.646447 1.35355L1.35355 0.646447ZM1.35355 7.35355L4.35355 4.35355L3.64645 3.64645L0.646447 6.64645L1.35355 7.35355ZM4.35355 3.64645L1.35355 0.646447L0.646447 1.35355L3.64645 4.35355L4.35355 3.64645Z" fill="#09ABE4"/>
</svg>
